<mxfile host="app.diagrams.net" modified="2024-03-19T15:09:38.752Z" agent="Mozilla/5.0 (Windows NT 10.0; Win64; x64) AppleWebKit/537.36 (KHTML, like Gecko) Chrome/122.0.0.0 Safari/537.36" etag="VF2n4q9RJ39e_MwtQi11" version="24.0.7" type="device">
  <diagram name="PÃ¡gina-1" id="7C6g-XSQC5cHsMSz_I_0">
    <mxGraphModel dx="1434" dy="778" grid="1" gridSize="10" guides="1" tooltips="1" connect="1" arrows="1" fold="1" page="1" pageScale="1" pageWidth="827" pageHeight="1169" math="0" shadow="0">
      <root>
        <mxCell id="0" />
        <mxCell id="1" parent="0" />
        <mxCell id="aUAwieUMPrZvR46d1s7g-2" style="edgeStyle=orthogonalEdgeStyle;rounded=0;orthogonalLoop=1;jettySize=auto;html=1;" edge="1" parent="1" source="aUAwieUMPrZvR46d1s7g-1" target="aUAwieUMPrZvR46d1s7g-6">
          <mxGeometry relative="1" as="geometry">
            <mxPoint x="414" y="110" as="targetPoint" />
          </mxGeometry>
        </mxCell>
        <mxCell id="aUAwieUMPrZvR46d1s7g-1" value="iINICIO" style="rounded=1;whiteSpace=wrap;html=1;" vertex="1" parent="1">
          <mxGeometry x="354" y="20" width="120" height="60" as="geometry" />
        </mxCell>
        <mxCell id="aUAwieUMPrZvR46d1s7g-4" style="edgeStyle=orthogonalEdgeStyle;rounded=0;orthogonalLoop=1;jettySize=auto;html=1;exitX=0;exitY=0.5;exitDx=0;exitDy=0;" edge="1" parent="1" source="aUAwieUMPrZvR46d1s7g-6" target="aUAwieUMPrZvR46d1s7g-5">
          <mxGeometry relative="1" as="geometry">
            <mxPoint x="80" y="230" as="targetPoint" />
            <mxPoint x="250" y="160" as="sourcePoint" />
            <Array as="points">
              <mxPoint x="80" y="160" />
            </Array>
          </mxGeometry>
        </mxCell>
        <mxCell id="aUAwieUMPrZvR46d1s7g-20" style="edgeStyle=orthogonalEdgeStyle;rounded=0;orthogonalLoop=1;jettySize=auto;html=1;" edge="1" parent="1" source="aUAwieUMPrZvR46d1s7g-5">
          <mxGeometry relative="1" as="geometry">
            <mxPoint x="80" y="350" as="targetPoint" />
          </mxGeometry>
        </mxCell>
        <mxCell id="aUAwieUMPrZvR46d1s7g-5" value="RESTAURANTE DO CLIDES" style="rounded=0;whiteSpace=wrap;html=1;" vertex="1" parent="1">
          <mxGeometry x="20" y="200" width="120" height="60" as="geometry" />
        </mxCell>
        <mxCell id="aUAwieUMPrZvR46d1s7g-9" style="edgeStyle=orthogonalEdgeStyle;rounded=0;orthogonalLoop=1;jettySize=auto;html=1;" edge="1" parent="1" source="aUAwieUMPrZvR46d1s7g-6">
          <mxGeometry relative="1" as="geometry">
            <mxPoint x="740" y="200" as="targetPoint" />
            <Array as="points">
              <mxPoint x="740" y="160" />
              <mxPoint x="740" y="201" />
            </Array>
          </mxGeometry>
        </mxCell>
        <mxCell id="aUAwieUMPrZvR46d1s7g-13" style="edgeStyle=orthogonalEdgeStyle;rounded=0;orthogonalLoop=1;jettySize=auto;html=1;" edge="1" parent="1" source="aUAwieUMPrZvR46d1s7g-6">
          <mxGeometry relative="1" as="geometry">
            <mxPoint x="414" y="280" as="targetPoint" />
          </mxGeometry>
        </mxCell>
        <mxCell id="aUAwieUMPrZvR46d1s7g-6" value="QUAL RESTAURANTE" style="rhombus;whiteSpace=wrap;html=1;" vertex="1" parent="1">
          <mxGeometry x="289" y="120" width="250" height="80" as="geometry" />
        </mxCell>
        <mxCell id="aUAwieUMPrZvR46d1s7g-11" value="MARISCO" style="text;html=1;align=center;verticalAlign=middle;whiteSpace=wrap;rounded=0;" vertex="1" parent="1">
          <mxGeometry x="580" y="120" width="120" height="30" as="geometry" />
        </mxCell>
        <mxCell id="aUAwieUMPrZvR46d1s7g-31" style="edgeStyle=orthogonalEdgeStyle;rounded=0;orthogonalLoop=1;jettySize=auto;html=1;entryX=0.5;entryY=0;entryDx=0;entryDy=0;" edge="1" parent="1" source="aUAwieUMPrZvR46d1s7g-12" target="aUAwieUMPrZvR46d1s7g-24">
          <mxGeometry relative="1" as="geometry" />
        </mxCell>
        <mxCell id="aUAwieUMPrZvR46d1s7g-12" value="AZENHAS DO MAR" style="rounded=0;whiteSpace=wrap;html=1;" vertex="1" parent="1">
          <mxGeometry x="680" y="200" width="120" height="60" as="geometry" />
        </mxCell>
        <mxCell id="aUAwieUMPrZvR46d1s7g-16" style="edgeStyle=orthogonalEdgeStyle;rounded=0;orthogonalLoop=1;jettySize=auto;html=1;entryX=0.5;entryY=0;entryDx=0;entryDy=0;" edge="1" parent="1" source="aUAwieUMPrZvR46d1s7g-14" target="aUAwieUMPrZvR46d1s7g-17">
          <mxGeometry relative="1" as="geometry">
            <mxPoint x="414" y="410" as="targetPoint" />
          </mxGeometry>
        </mxCell>
        <mxCell id="aUAwieUMPrZvR46d1s7g-14" value="RESTAURANTE FECHADO" style="rounded=0;whiteSpace=wrap;html=1;" vertex="1" parent="1">
          <mxGeometry x="354" y="280" width="120" height="60" as="geometry" />
        </mxCell>
        <mxCell id="aUAwieUMPrZvR46d1s7g-15" value="SUSHI" style="text;html=1;align=center;verticalAlign=middle;whiteSpace=wrap;rounded=0;" vertex="1" parent="1">
          <mxGeometry x="414" y="210" width="60" height="30" as="geometry" />
        </mxCell>
        <mxCell id="aUAwieUMPrZvR46d1s7g-17" value="FIM" style="rounded=1;whiteSpace=wrap;html=1;" vertex="1" parent="1">
          <mxGeometry x="354" y="420" width="120" height="60" as="geometry" />
        </mxCell>
        <mxCell id="aUAwieUMPrZvR46d1s7g-23" style="edgeStyle=orthogonalEdgeStyle;rounded=0;orthogonalLoop=1;jettySize=auto;html=1;entryX=1;entryY=0.5;entryDx=0;entryDy=0;" edge="1" parent="1" source="aUAwieUMPrZvR46d1s7g-19" target="aUAwieUMPrZvR46d1s7g-17">
          <mxGeometry relative="1" as="geometry" />
        </mxCell>
        <mxCell id="aUAwieUMPrZvR46d1s7g-19" value="PASSEAR A BEIRA MAR" style="rounded=0;whiteSpace=wrap;html=1;" vertex="1" parent="1">
          <mxGeometry x="660" y="480" width="160" height="60" as="geometry" />
        </mxCell>
        <mxCell id="aUAwieUMPrZvR46d1s7g-28" style="edgeStyle=orthogonalEdgeStyle;rounded=0;orthogonalLoop=1;jettySize=auto;html=1;" edge="1" parent="1" source="aUAwieUMPrZvR46d1s7g-21" target="aUAwieUMPrZvR46d1s7g-17">
          <mxGeometry relative="1" as="geometry" />
        </mxCell>
        <mxCell id="aUAwieUMPrZvR46d1s7g-21" value="PASSERAR NO PIODAO" style="rounded=0;whiteSpace=wrap;html=1;" vertex="1" parent="1">
          <mxGeometry x="20" y="490" width="120" height="60" as="geometry" />
        </mxCell>
        <mxCell id="aUAwieUMPrZvR46d1s7g-29" style="edgeStyle=orthogonalEdgeStyle;rounded=0;orthogonalLoop=1;jettySize=auto;html=1;" edge="1" parent="1" source="aUAwieUMPrZvR46d1s7g-24">
          <mxGeometry relative="1" as="geometry">
            <mxPoint x="740" y="480" as="targetPoint" />
          </mxGeometry>
        </mxCell>
        <mxCell id="aUAwieUMPrZvR46d1s7g-24" value="CATAPLANA DE POLVO&amp;nbsp;" style="rounded=0;whiteSpace=wrap;html=1;" vertex="1" parent="1">
          <mxGeometry x="680" y="340" width="120" height="60" as="geometry" />
        </mxCell>
        <mxCell id="aUAwieUMPrZvR46d1s7g-27" style="edgeStyle=orthogonalEdgeStyle;rounded=0;orthogonalLoop=1;jettySize=auto;html=1;" edge="1" parent="1" source="aUAwieUMPrZvR46d1s7g-25" target="aUAwieUMPrZvR46d1s7g-21">
          <mxGeometry relative="1" as="geometry" />
        </mxCell>
        <mxCell id="aUAwieUMPrZvR46d1s7g-25" value="BIFE DA VAZIA REGADO COM TINTO DO DAO" style="rounded=0;whiteSpace=wrap;html=1;" vertex="1" parent="1">
          <mxGeometry x="20" y="350" width="120" height="60" as="geometry" />
        </mxCell>
        <mxCell id="aUAwieUMPrZvR46d1s7g-26" value="CARNE" style="text;html=1;align=center;verticalAlign=middle;whiteSpace=wrap;rounded=0;" vertex="1" parent="1">
          <mxGeometry x="150" y="120" width="60" height="30" as="geometry" />
        </mxCell>
      </root>
    </mxGraphModel>
  </diagram>
</mxfile>
